<mxfile host="app.diagrams.net" modified="2023-11-24T18:40:54.747Z" agent="Mozilla/5.0 (Linux; Android 10; K) AppleWebKit/537.36 (KHTML, like Gecko) Chrome/119.0.0.0 Mobile Safari/537.36" version="22.1.4" etag="bIdwszmU0l-dLHgT43vE" type="github">
  <diagram name="Page-1" id="FiTFQD2AMDaGTHT1Fz_C">
    <mxGraphModel>
      <root>
        <mxCell id="0" />
        <mxCell id="1" parent="0" />
      </root>
    </mxGraphModel>
  </diagram>
</mxfile>
